<svg width="32" height="36" viewBox="0 0 32 36" fill="none" xmlns="http://www.w3.org/2000/svg">
<path d="M30.6737 0.759658L30.6737 0.759365L30.6616 0.757655C30.5817 0.746353 30.4861 0.745452 30.3864 0.769564C26.5538 1.61421 23.0817 3.62438 20.4653 6.51757C17.595 5.39469 14.3972 5.39466 11.5269 6.51748C8.90989 3.616 5.43675 1.60554 1.60281 0.768978C1.22292 0.684403 0.849092 0.91663 0.762248 1.29737L0.759997 1.30724L0.758551 1.31726C0.74715 1.39627 0.74715 1.48355 0.758551 1.56256L0.758363 1.56258L0.76013 1.57217C0.976121 2.74393 1.80525 3.70889 2.93428 4.1099L3.01792 3.87442L2.93403 4.10981C5.19987 4.91733 7.24075 6.22053 8.92434 7.92301C3.64117 11.6724 2.28266 18.8923 5.85718 24.2678C5.60017 24.5371 5.37375 24.833 5.17754 25.1451L5.17732 25.1455C3.79236 27.3572 3.58624 30.0916 4.6167 32.4827L4.61687 32.4831C5.23798 33.9178 6.78008 34.7362 8.32185 34.456C8.70378 34.3933 8.96515 34.0279 8.89294 33.6447C8.86505 33.4739 8.77233 33.3394 8.66129 33.2405L8.66133 33.2404L8.65686 33.2366C6.72326 31.5937 6.28978 28.8066 7.62926 26.6593L7.62987 26.6583C7.66084 26.6081 7.69295 26.5601 7.72673 26.5131L15.8173 35.1707L15.9999 35.3661L16.1826 35.1707L24.277 26.509C24.3127 26.5574 24.3465 26.6073 24.378 26.6583L24.3787 26.6595C25.7476 28.8503 25.2547 31.7192 23.216 33.3402C22.902 33.5789 22.8582 34.0244 23.1029 34.3272C23.2024 34.4503 23.3393 34.5358 23.4971 34.5719L23.4998 34.5725C25.0334 34.9051 26.603 34.1382 27.268 32.7275C28.3954 30.3483 28.2574 27.579 26.9208 25.321C26.8887 25.2513 26.8495 25.1931 26.8214 25.1515L26.8202 25.1496C26.6245 24.8387 26.3987 24.5439 26.1426 24.2756C29.7172 18.8925 28.3589 11.6722 23.0829 7.92278C24.7592 6.22057 26.7999 4.91737 29.0659 4.10981C30.1948 3.70875 31.0238 2.74384 31.2398 1.57217L31.2398 1.57218L31.2406 1.56705C31.3025 1.18754 31.0532 0.832386 30.6737 0.759658ZM21.2665 10.1481C25.3773 12.9581 26.4801 18.4975 23.7792 22.6402C19.6684 19.8302 18.5657 14.2908 21.2665 10.1481ZM21.9198 24.8358L16.0001 31.1641L10.0866 24.8345C15.1862 21.1687 16.5978 14.2448 13.3498 8.90838C15.0818 8.39706 16.9246 8.39703 18.65 8.90801C15.3937 14.2491 16.8154 21.1781 21.9198 24.8358ZM10.7411 10.1482C13.45 14.3056 12.3231 19.8401 8.2209 22.6401C5.51191 18.4749 6.63902 12.9478 10.7411 10.1482Z" fill="#F3F3F3" stroke="black" stroke-width="0.5"/>
</svg>
